<?xml version="1.0" encoding="iso-8859-1"?>
<!-- Generator: Adobe Illustrator 19.0.0, SVG Export Plug-In . SVG Version: 6.00 Build 0)  -->
<svg version="1.1" id="Layer_1" xmlns="http://www.w3.org/2000/svg" xmlns:xlink="http://www.w3.org/1999/xlink" x="0px" y="0px"
	 viewBox="0 0 366.37 366.37" style="enable-background:new 0 0 366.37 366.37;" xml:space="preserve">
<g id="XMLID_983_">
	<g id="XMLID_984_">
		<g id="XMLID_985_">
			<path id="XMLID_988_" style="fill:#FFE165;" d="M349.091,95.092c0,31.508-8.779,60.956-24.015,86.049
				c-6.083,9.982-13.176,19.272-21.153,27.72c-30.25,32.103-73.15,52.135-120.737,52.135S92.7,240.963,62.45,208.861
				c-7.977-8.447-15.07-17.738-21.153-27.72C26.061,156.048,17.282,126.6,17.282,95.092"/>
			<path id="XMLID_991_" style="fill:#FFE165;" d="M349.09,91.592c0,31.508-8.779,60.956-24.015,86.049
				c-6.083,9.982-13.176,19.272-21.153,27.72c-30.25,32.103-73.15,52.135-120.737,52.135s-90.487-20.033-120.737-52.135
				c-7.977-8.447-15.07-17.738-21.153-27.72C26.059,152.548,17.28,123.1,17.28,91.592C17.28,91.592,349.09,91.592,349.09,91.592z"/>
			<path id="XMLID_992_" style="fill:#FFA250;" d="M183.186,274.777c-50.251,0-98.842-20.982-133.315-57.565
				c-8.783-9.3-16.638-19.593-23.332-30.578C9.172,158.031,0,125.174,0,91.592h34.563c0,27.255,7.437,53.909,21.505,77.08
				c5.425,8.901,11.804,17.261,18.945,24.823c28.393,30.132,66.804,46.719,108.172,46.719s79.779-16.587,108.159-46.705
				c7.154-7.576,13.534-15.936,18.973-24.861c14.053-23.147,21.49-49.801,21.49-77.056h34.563c0,33.582-9.172,66.439-26.525,95.018
				c-6.709,11.009-14.563,21.302-23.36,30.616C282.028,253.796,233.437,274.777,183.186,274.777z"/>
		</g>
		<path id="XMLID_993_" style="fill:#FFA250;" d="M183.187,147.496c-30.866,0-59.529-12.378-80.709-34.854
			c-5.368-5.685-10.146-11.945-14.216-18.624c-0.487-0.803-0.964-1.611-1.43-2.426H279.54c-0.48,0.841-0.973,1.676-1.476,2.505
			c-4.034,6.618-8.794,12.853-14.128,18.5C242.725,135.108,214.053,147.496,183.187,147.496z"/>
	</g>
	<g id="XMLID_994_">
		<circle id="XMLID_995_" style="fill:#FFFEB9;" cx="142.936" cy="108.092" r="13"/>
		<circle id="XMLID_996_" style="fill:#FFFEB9;" cx="223.436" cy="108.092" r="13"/>
		<circle id="XMLID_997_" style="fill:#FFFEB9;" cx="183.186" cy="123.185" r="13"/>
	</g>
</g>
<g>
</g>
<g>
</g>
<g>
</g>
<g>
</g>
<g>
</g>
<g>
</g>
<g>
</g>
<g>
</g>
<g>
</g>
<g>
</g>
<g>
</g>
<g>
</g>
<g>
</g>
<g>
</g>
<g>
</g>
</svg>
