<?xml version="1.0" encoding="iso-8859-1"?>
<!-- Generator: Adobe Illustrator 19.0.0, SVG Export Plug-In . SVG Version: 6.00 Build 0)  -->
<svg version="1.1" id="Layer_1" xmlns="http://www.w3.org/2000/svg" xmlns:xlink="http://www.w3.org/1999/xlink" x="0px" y="0px"
	 viewBox="0 0 512 512" style="enable-background:new 0 0 512 512;" xml:space="preserve">
<path style="fill:#82D78C;" d="M395.075,2.166c6.711,29.329-2.2,62.547-26.385,86.731c-24.184,24.184-57.402,33.096-86.731,26.385
	c-6.711-29.329,2.2-62.547,26.385-86.731S365.747-4.545,395.075,2.166z"/>
<path style="fill:#A0EB87;" d="M395.075,2.166L281.961,115.281l0,0c-6.711-29.329,2.2-62.547,26.385-86.73
	S365.747-4.546,395.075,2.166L395.075,2.166z"/>
<path style="fill:#82D78C;" d="M151.574,1.505c-4.664,20.381,1.529,43.464,18.335,60.269s39.889,22.999,60.269,18.335
	c4.664-20.381-1.529-43.464-18.335-60.269S171.955-3.159,151.574,1.505z"/>
<path style="fill:#A0EB87;" d="M151.574,1.505l78.604,78.604l0,0c4.664-20.381-1.529-43.464-18.335-60.269
	S171.955-3.159,151.574,1.505L151.574,1.505z"/>
<path style="fill:#76B580;" d="M341.689,55.552c-3.448-3.448-9.035-3.448-12.483,0l-64.378,64.38V52.966
	c0-4.879-3.953-8.828-8.828-8.828s-8.828,3.948-8.828,8.828v31.706l-46.75-46.75c-3.448-3.448-9.035-3.448-12.483,0
	c-3.448,3.448-3.448,9.035,0,12.483l59.233,59.232v31.496c-0.001,0.09-0.001,0.177,0,0.266v25.935c0,4.879,3.953,8.828,8.828,8.828
	s8.828-3.948,8.828-8.828v-22.44l76.862-76.862C345.138,64.586,345.138,59,341.689,55.552z"/>
<path style="fill:#FAE18C;" d="M358.526,299.561c-14.75-17.664-27.491-32.922-27.491-51.966c0-57.612-38.659-88.698-75.034-88.698
	s-75.034,31.086-75.034,88.698c0,19.043-12.742,34.302-27.491,51.966c-18.146,21.732-38.716,46.37-38.716,83.81
	C114.759,452.647,174.22,512,222.897,512c10.246,0,17.479-2.897,23.285-5.224c3.84-1.543,6.871-2.759,9.818-2.759
	s5.978,1.216,9.818,2.759c5.806,2.327,13.039,5.224,23.285,5.224c48.676,0,108.138-59.353,108.138-128.629
	C397.241,345.931,376.672,321.293,358.526,299.561z"/>
<path style="fill:#FAD26E;" d="M185.379,383.371c0-37.44,16.07-62.078,30.247-83.81c11.523-17.664,21.478-32.922,21.478-51.966
	c0-45.795,19.096-74.76,41.197-84.744c-7.299-2.575-14.84-3.955-22.301-3.955c-36.375,0-75.034,31.086-75.034,88.698
	c0,19.043-12.742,34.302-27.491,51.966c-18.146,21.732-38.716,46.37-38.716,83.81C114.759,452.647,174.22,512,222.897,512
	c10.246,0,17.479-2.897,23.285-5.224c0.669-0.269,1.203-0.438,1.826-0.682C216.087,489.454,185.379,439.696,185.379,383.371z"/>
<path style="fill:#FBE9A9;" d="M338.203,325.362c-2.526,0-5.035-1.078-6.781-3.172c-16.733-20.034-35.698-42.75-35.698-74.594
	c0-4.879,3.953-8.828,8.828-8.828s8.828,3.948,8.828,8.828c0,25.449,15.345,43.828,31.595,63.285
	c3.125,3.742,2.625,9.302-1.117,12.431C342.207,324.69,340.199,325.362,338.203,325.362z"/>
<path style="fill:#FCEDBA;" d="M296.612,220.707c-3.181,0-6.254-1.725-7.828-4.733c-3.052-5.827-7.005-10.646-11.746-14.327
	c-3.849-2.991-4.547-8.534-1.56-12.388c2.996-3.844,8.53-4.552,12.388-1.56c6.754,5.241,12.323,12,16.556,20.086
	c2.263,4.319,0.595,9.655-3.724,11.914C299.392,220.389,297.992,220.707,296.612,220.707z"/>
<g>
</g>
<g>
</g>
<g>
</g>
<g>
</g>
<g>
</g>
<g>
</g>
<g>
</g>
<g>
</g>
<g>
</g>
<g>
</g>
<g>
</g>
<g>
</g>
<g>
</g>
<g>
</g>
<g>
</g>
</svg>
